<svg width="40" height="40" viewBox="0 0 40 40" fill="none" xmlns="http://www.w3.org/2000/svg">
<g clip-path="url(#clip0_207_6)">
<path d="M20.0008 39.9736C30.8021 39.9736 39.5583 31.0311 39.5583 20C39.5583 8.96887 30.8021 0.0263672 20.0008 0.0263672C9.19954 0.0263672 0.443359 8.96887 0.443359 20C0.443359 31.0311 9.19954 39.9736 20.0008 39.9736Z" fill="white"/>
<path d="M20.0008 0.101685C8.95635 0.101685 0 9.03333 0 20.0529C0 28.8692 5.73104 36.3474 13.6771 38.985C14.6761 39.1692 15.044 38.5523 15.044 38.0251C15.044 37.5492 15.0247 35.9773 15.0167 34.3108C9.45268 35.5174 8.27852 31.9569 8.27852 31.9569C7.36939 29.6511 6.0571 29.0374 6.0571 29.0374C4.24206 27.7988 6.19363 27.8244 6.19363 27.8244C8.20142 27.9654 9.25993 29.8803 9.25993 29.8803C11.0445 32.9312 13.9389 32.0483 15.0793 31.5387C15.2592 30.2488 15.7764 29.3691 16.3498 28.8708C11.907 28.366 7.23768 26.6547 7.23768 19.0097C7.23768 16.8321 8.01831 15.0519 9.29848 13.6546C9.09127 13.153 8.40702 11.1244 9.49283 8.37636C9.49283 8.37636 11.173 7.83956 14.9942 10.421C16.5892 9.97874 18.2998 9.75761 20.0008 9.7496C21.7002 9.75761 23.4124 9.97874 25.0106 10.421C28.8287 7.83956 30.5056 8.37636 30.5056 8.37636C31.5946 11.1244 30.9087 13.1546 30.7015 13.6562C31.9833 15.0535 32.7591 16.8337 32.7591 19.0113C32.7591 26.6739 28.0802 28.3628 23.6261 28.8563C24.3441 29.4749 24.9833 30.6895 24.9833 32.5514C24.9833 35.221 24.9608 37.3698 24.9608 38.0267C24.9608 38.5571 25.3206 39.1805 26.3342 38.9834C34.277 36.3426 40 28.866 40 20.0529C40 9.03333 31.0453 0.101685 20.0008 0.101685Z" fill="#5C6BC0"/>
</g>
<defs>
<clipPath id="clip0_207_6">
<rect width="40" height="40" fill="white"/>
</clipPath>
</defs>
</svg>
